# xmcd
#
# Track frame offsets: 
#        150
#        22259
#        44697
#        68973
#        88431
#        103881
#        140046
#        152571
#        174377
#        203296
#        220595
#        232465
#        252254
#        271979
#        289750
#
# Disc length: 4128 seconds
#
# Revision: 0
# Processed by: cddbd v1.5.2PL0 Copyright (c) Steve Scherf et al.
# Submitted via: ExactAudioCopy v1.0b3
#
DISCID=ea101e0f
DTITLE=Demis Roussos - Insight
DYEAR=1991
DGENRE=Pop
TTITLE0=Morning Has Broken
TTITLE1=Tous Les Je Vous Aime
TTITLE2=Oxygen
TTITLE3=Too Many Dreams
TTITLE4=Les Mots Qui Font Peur
TTITLE5=Adagio
TTITLE6=Italian Song
TTITLE7=Take Me Home
TTITLE8=Spleen
TTITLE9=Sergueii
TTITLE10=Sandra, Princesse Rebelle
TTITLE11=Danse A La Vie
TTITLE12=Alpha
TTITLE13=Blue Sky
TTITLE14=Picture Still
EXTD=
EXTT0=
EXTT1=
EXTT2=
EXTT3=
EXTT4=
EXTT5=
EXTT6=
EXTT7=
EXTT8=
EXTT9=
EXTT10=
EXTT11=
EXTT12=
EXTT13=
EXTT14=
PLAYORDER=
